PathFileType	4	(X/Y/Z)	D:\MotionData\Pi-Spi Study\20230118_AMCsubject1\Trimmed_right_horiz_abd01_rotated.trc
DataRate	CameraRate	NumFrames	NumMarkers	Units	OrigDataRate	OrigDataStartFrame	OrigNumFrames
200.00	200.00	       10	35	mm	200.00	76	       200
Frame#	Time	C7			Sternum			r_AMC1			r_AMC2			r_AMC3			l_AMC1			l_AMC2			l_AMC3			PX			T8			r_humerous			r_elbow_medial			r_elbow_lateral			r_forearm			r_wrist_radius			r_wrist_ulna			r_MCP_1			r_MCP_3			l_humerous			l_elbow_medial			l_elbow_lateral			l_forearm			l_wrist_radius			l_wrist_ulna			l_MCP_1			l_MCP_3			r_ASIS			r_PSIS			l_ASIS			l_PSIS			r_IC			l_IC			TS			AI			AA			
		X1	Y1	Z1	X2	Y2	Z2	X3	Y3	Z3	X4	Y4	Z4	X5	Y5	Z5	X6	Y6	Z6	X7	Y7	Z7	X8	Y8	Z8	X9	Y9	Z9	X10	Y10	Z10	X11	Y11	Z11	X12	Y12	Z12	X13	Y13	Z13	X14	Y14	Z14	X15	Y15	Z15	X16	Y16	Z16	X17	Y17	Z17	X18	Y18	Z18	X19	Y19	Z19	X20	Y20	Z20	X21	Y21	Z21	X22	Y22	Z22	X23	Y23	Z23	X24	Y24	Z24	X25	Y25	Z25	X26	Y26	Z26	X27	Y27	Z27	X28	Y28	Z28	X29	Y29	Z29	X30	Y30	Z30	X31	Y31	Z31	X32	Y32	Z32	X33	Y33	Z33	X34	Y34	Z34	X35	Y35	Z35	

76	0.375	215.4797	1376.9624	-262.2734	342.5772	1309.2216	-233.2439	173.5855	1364.0177	-136.6215	200.2479	1387.4133	-101.5141	225.5231	1406.954	-133.4619	241.4537	1314.0203	-409.2532	281.0853	1300.9266	-439.8828	306.4467	1335.9413	-410.6703	378.3308	1113.1589	-200.155	156.2163	1199.7559	-252.7082	235.7449	1367.8257	47.1208	201.1778	1282.0455	168.3516	158.1688	1324.2383	159.0854	113.8398	1341.2404	317.2302	111.1165	1365.852	389.497	107.5401	1314.0328	386.4743	93.3833	1371.0071	473.9633	96.1745	1323.5199	473.3451	344.9514	1105.8381	-417.6272	263.3697	978.6393	-407.6833	285.3727	975.4503	-459.2267	344.7069	827.4494	-473.325	387.8772	758.1457	-446.2871	348.558	752.8107	-468.2397	403.629	680.6215	-453.9243	360.2692	676.5359	-470.9876	343.2712	906.1217	-63.1872	159.0405	929.2714	-155.3062	356.9603	889.8309	-324.2841	165.0412	922.9939	-258.6548	259.9583	971.86	-41.6915	269.9808	936.9357	-366.7539	113.7142	1331.2362	-207.8577	98.3724	1235.3881	-176.3138	129.5161	1366.695	-68.7454
77	0.38	215.4652	1376.9645	-262.2292	342.55	1309.2408	-233.2396	173.409	1364.1622	-136.5531	200.2208	1387.4224	-101.4607	225.3932	1407.0453	-133.4266	241.4888	1314.0243	-409.2731	281.0642	1300.9574	-439.9069	306.4023	1336.009	-410.6064	378.3147	1113.173	-200.1725	156.2117	1199.7728	-252.7125	235.7901	1367.8074	47.1303	201.1699	1282.0884	168.3527	158.1873	1324.2739	159.079	113.8467	1341.2755	317.2478	111.1238	1365.8842	389.4913	107.5311	1314.0728	386.5047	93.3965	1371.0316	473.9923	96.1563	1323.5474	473.3278	344.9246	1105.8517	-417.6811	263.3354	978.6577	-407.6761	285.3341	975.4655	-459.2341	344.8149	827.6167	-473.4864	387.8511	758.1673	-446.3382	348.5501	752.8214	-468.2847	403.4631	680.7294	-454.1095	360.2581	676.5749	-471.0292	343.2727	906.1332	-63.1958	159.054	929.2768	-155.3207	356.9445	889.8472	-324.3115	165.0107	922.9825	-258.6397	259.9551	971.9103	-41.6838	269.6996	937.1583	-366.7527	113.734	1331.2074	-207.8429	98.3842	1235.3533	-176.2807	129.4963	1366.6904	-68.7389
78	0.385	215.4588	1376.9144	-262.2417	342.576	1309.2599	-233.2254	173.5665	1363.9722	-136.5756	200.1952	1387.4255	-101.4182	225.3611	1407.0703	-133.4002	241.4393	1314.0359	-409.277	281.0783	1300.9594	-439.8578	306.3622	1336.0601	-410.5753	378.3505	1113.203	-200.1651	156.2186	1199.7584	-252.6911	235.769	1367.8518	47.1352	201.1663	1282.0811	168.3771	158.1663	1324.2745	159.0935	113.8388	1341.3002	317.2522	111.1186	1365.9287	389.5002	107.5331	1314.108	386.5159	93.3832	1371.0819	474.0031	96.1605	1323.5859	473.3396	344.9022	1105.9098	-417.6861	263.3321	978.6616	-407.7136	285.3346	975.4758	-459.266	344.7418	827.7003	-473.5204	387.8389	758.1949	-446.3862	348.5207	752.8657	-468.3213	403.5108	680.5774	-454.0662	360.2165	676.5872	-471.084	343.3047	906.1364	-63.2161	159.0575	929.2725	-155.3052	356.9718	889.8768	-324.3084	165.0187	922.9587	-258.6346	259.9994	971.8764	-41.7036	269.8976	937.0125	-366.7915	113.6978	1331.1871	-207.8115	98.3784	1235.2918	-176.2842	129.5001	1366.6699	-68.7094
79	0.39	215.4494	1376.9445	-262.2178	342.55	1309.2539	-233.2096	173.5646	1363.9434	-136.5343	200.1646	1387.4194	-101.3673	225.3022	1407.1244	-133.3643	241.4591	1314.0518	-409.2838	281.0324	1301.0167	-439.8469	306.3834	1336.0135	-410.5721	378.311	1113.1925	-200.1576	156.2199	1199.7682	-252.6707	235.7579	1367.9058	47.1508	201.1439	1282.1296	168.3716	158.1841	1324.2783	159.0901	113.8492	1341.3344	317.2688	111.1249	1365.9819	389.5152	107.5594	1314.2253	386.5344	93.3897	1371.1394	474.0186	96.1494	1323.6143	473.3504	344.8595	1106.0303	-417.7747	263.3097	978.6804	-407.731	285.2971	975.5168	-459.2744	344.7277	827.7292	-473.565	387.8077	758.2172	-446.4169	348.478	752.8732	-468.3743	403.3937	680.8029	-454.2071	360.1907	676.6245	-471.1521	343.2728	906.0991	-63.2521	159.0475	929.2385	-155.2982	356.9495	889.8804	-324.3276	165.0106	922.9753	-258.6597	259.9937	971.9174	-41.6985	269.8386	937.0209	-366.8014	113.7055	1331.1633	-207.8226	98.3697	1235.3112	-176.2372	129.4807	1366.651	-68.7001
80	0.395	215.4342	1376.9668	-262.1987	342.4062	1309.1576	-233.1601	173.5358	1363.9279	-136.4982	200.1242	1387.421	-101.3542	225.2387	1407.1532	-133.3515	241.3681	1314.1457	-409.2445	281.0391	1301.0295	-439.8339	306.3234	1336.0544	-410.5462	378.3112	1113.2075	-200.1819	156.1863	1199.7664	-252.6626	235.7711	1367.9044	47.166	201.1305	1282.1296	168.3815	158.16	1324.2723	159.113	113.8475	1341.3696	317.281	111.136	1366.0122	389.5205	107.6372	1314.3663	386.5237	93.3966	1371.1691	474.0195	96.1716	1323.6641	473.3501	344.8395	1106.0336	-417.739	263.3228	978.6875	-407.768	285.2677	975.5425	-459.288	344.668	827.7871	-473.5904	387.7659	758.2399	-446.4613	348.442	752.9181	-468.4206	403.3968	680.6327	-454.2169	360.1379	676.6593	-471.2067	343.2757	906.1227	-63.2435	159.0627	929.2326	-155.3163	356.905	889.9064	-324.3682	165.0067	922.9796	-258.6484	259.994	971.9114	-41.7019	270.1051	937.1462	-367.0428	113.6755	1331.1554	-207.7801	98.3602	1235.2853	-176.199	129.4959	1366.6547	-68.6762
81	0.4	215.4294	1376.9446	-262.1841	342.5414	1309.2892	-233.1826	173.5339	1363.8986	-136.4702	200.096	1387.4403	-101.3145	225.2015	1407.1746	-133.3374	241.3025	1314.2555	-409.1776	280.9916	1301.1056	-439.835	306.2923	1336.09	-410.3854	378.3276	1113.2264	-200.1963	156.1531	1200.0467	-252.8973	235.745	1367.9429	47.1794	201.116	1282.131	168.3816	158.1523	1324.2694	159.1093	113.8639	1341.3897	317.2972	111.143	1366.0625	389.5343	107.6491	1314.3953	386.545	93.4179	1371.233	474.0212	96.1758	1323.6937	473.36	344.8036	1106.0742	-417.7636	263.3136	978.7017	-407.7937	285.2683	975.5687	-459.3112	344.6589	827.8124	-473.6729	387.7389	758.2574	-446.5018	348.4139	752.955	-468.4768	403.3249	680.8591	-454.3592	360.1181	676.7009	-471.278	343.2532	906.1409	-63.2523	159.0353	929.2361	-155.2948	356.8611	889.8936	-324.3551	164.9969	922.9731	-258.636	260.0054	971.9362	-41.7083	269.6758	937.1463	-366.7774	113.6723	1331.1333	-207.7685	98.3504	1235.2831	-176.1694	129.5007	1366.637	-68.6441
82	0.405	215.4241	1376.9802	-262.1712	342.3929	1309.1637	-233.1659	173.5243	1363.9254	-136.4551	200.0826	1387.4425	-101.3002	225.1849	1407.1854	-133.3158	241.3065	1314.2634	-409.1956	280.9829	1301.0994	-439.8384	306.2194	1336.0796	-410.3082	378.3335	1113.2655	-200.1529	156.1608	1200.0399	-252.912	235.7789	1367.917	47.1794	201.1056	1282.1597	168.4032	158.1845	1324.2451	159.0978	113.8897	1341.4084	317.312	111.1465	1366.0826	389.5481	107.6501	1314.4043	386.567	93.3971	1371.2714	474.0489	96.1532	1323.7279	473.4069	344.8098	1106.0575	-417.7253	263.305	978.7098	-407.7957	285.26	975.575	-459.3182	344.6407	827.8118	-473.6862	387.7069	758.2847	-446.5442	348.3879	752.987	-468.5226	403.2479	680.74	-454.3012	360.0764	676.7168	-471.3224	343.2849	906.1379	-63.2737	159.0417	929.2353	-155.2967	356.8798	889.9351	-324.3861	165.0168	922.9941	-258.6678	259.9927	971.9498	-41.7186	269.9995	937.2467	-367.0978	113.6543	1331.1482	-207.7482	98.338	1235.2819	-176.1616	129.4831	1366.6121	-68.6454
83	0.41	215.3949	1376.9569	-262.1553	342.4253	1309.1868	-233.1597	173.5337	1363.8966	-136.4279	200.075	1387.4625	-101.2876	225.2122	1407.183	-133.2902	241.3814	1314.1351	-409.2325	280.9675	1301.1212	-439.9012	306.2642	1336.1226	-410.507	378.3375	1113.2839	-200.1095	156.138	1200.0513	-252.8702	235.787	1367.9225	47.1929	201.1313	1282.1702	168.4217	158.1936	1324.2289	159.1196	113.8849	1341.4114	317.3226	111.161	1366.1232	389.5615	107.6709	1314.3506	386.5887	93.4133	1371.2946	474.0564	96.2008	1323.7598	473.3935	344.7772	1106.1237	-417.7589	263.2935	978.7102	-407.7941	285.2399	975.5917	-459.3268	344.5691	827.8419	-473.7272	387.6779	758.295	-446.5829	348.339	753.0262	-468.5985	403.1544	681.0009	-454.5159	360.0615	676.7362	-471.388	343.2718	906.1221	-63.2673	159.0513	929.2297	-155.3036	356.838	889.9292	-324.4236	165.0134	922.9783	-258.6612	260.0204	971.9338	-41.7446	269.9546	937.2852	-367.1092	113.6403	1331.1554	-207.6963	98.3531	1235.304	-176.128	129.4925	1366.6467	-68.5999
84	0.415	215.3846	1376.9839	-262.1267	342.503	1309.3339	-233.1671	173.5385	1363.9001	-136.424	200.0867	1387.4618	-101.2655	225.2329	1407.1575	-133.3001	241.3323	1314.1881	-409.2485	280.8962	1301.2087	-439.858	306.1812	1336.1191	-410.3039	378.367	1113.2992	-200.1335	156.1267	1200.0474	-252.8742	235.7085	1367.9769	47.205	201.0085	1282.1841	168.371	158.1863	1324.2294	159.1182	113.9107	1341.4268	317.3464	111.1864	1366.1316	389.5663	107.7404	1314.4565	386.6124	93.4335	1371.3241	474.0527	96.2332	1323.8145	473.4326	344.7324	1106.17	-417.769	263.2906	978.7224	-407.8139	285.2341	975.6119	-459.3511	344.488	827.9148	-473.7394	387.6712	758.2982	-446.6345	348.3121	753.0434	-468.6499	403.1308	680.8866	-454.5094	360.0249	676.7518	-471.4472	343.2667	906.1557	-63.279	159.0441	929.2151	-155.3169	356.866	889.9488	-324.3991	165.0124	922.991	-258.6683	259.9583	971.9783	-41.7241	269.6988	937.1506	-366.8556	113.6518	1331.1457	-207.7074	98.3401	1235.3163	-176.1183	129.519	1366.6429	-68.614
85	0.42	215.3602	1376.9811	-262.1134	342.4937	1309.3462	-233.1773	173.5269	1363.918	-136.4151	200.092	1387.4731	-101.2582	225.2784	1407.1399	-133.291	241.2964	1314.2577	-409.2199	280.862	1301.1958	-439.8579	306.1733	1336.2057	-410.5125	378.3095	1113.3009	-200.1126	156.1361	1200.0558	-252.8545	235.7225	1367.9661	47.1945	201.0991	1282.2061	168.4562	158.1932	1324.228	159.1307	113.9115	1341.4219	317.3671	111.2	1366.1439	389.5815	107.7606	1314.4392	386.6477	93.4403	1371.3446	474.0732	96.2579	1323.8189	473.4555	344.7404	1106.209	-417.7962	263.27	978.7355	-407.834	285.2251	975.6318	-459.3602	344.4661	827.9467	-473.7986	387.644	758.2986	-446.6805	348.3021	753.0676	-468.6735	403.1917	680.8583	-454.3856	359.9559	676.7657	-471.4877	343.2923	906.1452	-63.29	159.0551	929.218	-155.3008	356.8384	889.9328	-324.418	165.0053	922.9871	-258.6647	259.9551	971.9888	-41.7055	269.5084	937.2939	-366.811	113.6407	1331.1487	-207.6766	98.3313	1235.3186	-176.0658	129.5181	1366.6443	-68.5786
